{
  "title": "Kid Ink ft. Tyga - Ride Out (from Furious 7) 2015",
  "uid": 11755106,
  "size": 93682747,
  "categoryP": "video",
  "categoryS": "music_videos",
  "magnet": "?xt=urn:btih:557a170af7122ccf23b0e748cfcc6b7b591c949d&amp;dn=Kid+Ink+ft.+Tyga+-+Ride+Out+%28from+Furious+7%29+2015&amp;tr=udp%3A%2F%2Ftracker.openbittorrent.com%3A80&amp;tr=udp%3A%2F%2Fopen.demonii.com%3A1337&amp;tr=udp%3A%2F%2Ftracker.coppersurfer.tk%3A6969&amp;tr=udp%3A%2F%2Fexodus.desync.com%3A6969",
  "seeders": 38,
  "leechers": 7,
  "uploader": "MeRaDil",
  "files": 1,
  "time": 1426349661,
  "description": "KID INK+TYGA+YG+WALE+RICH HOMIE QUAN - RIDE OUT\n\n &lt;a href=&quot;\nhttp://gifyu.com/images/ride.png&quot; rel=&quot;nofollow&quot; target=&quot;_NEW&quot;&gt;\nhttp://gifyu.com/images/ride.png&lt;/a&gt;\n &lt;a href=&quot;\nhttp://gifyu.com/images/RideOut.png&quot; rel=&quot;nofollow&quot; target=&quot;_NEW&quot;&gt;\nhttp://gifyu.com/images/RideOut.png&lt;/a&gt;\n\nGeneral\nKid Ink+Tyga+YG+Wale+Rich Homie Quan - Ride Out (from Furious 7)\nFormat                      : MPEG-4\nFormat profile              : Base Media\nCodec ID                    : isom\nFile size                   : 89.3 MiB\nDuration                    : 3mn 32s\nOverall bit rate            : 3 522 Kbps\nMusicVid name               : Ride Out\nAlbum                       : Furious 7 Original Motion Picture Soundtrack\nPerformer                   : Kid Ink+Tyga+YG+Wale+Rich Homie Quan\nGenre                       : Soundtrack\nContentType                 : Music Video\nRecorded date               : 2015\nCopyright                   : Furious 7\nCover                       : Yes\nComment                     : from the movie:Fast &amp; Furious 7 \nRating                      : ***\nMake                        : MeRaDil\noday                        : USA 16-02-2015\nRelease                     : USA - february 16 - 2015\nPart_ID                     : Ride Out\n\nVideo\nID                          : 1\nFormat                      : AVC\nFormat/Info                 : Advanced Video Codec\nFormat profile              : &lt;a class=&quot;__cf_email__&quot; href=&quot;/cdn-cgi/l/email-protection&quot; data-cfemail=&quot;93dbfaf4fbd3dfa7bda3&quot;&gt;[email&amp;#160;protected]&lt;/a&gt;&lt;script cf-hash='f9e31' type=&quot;text/javascript&quot;&gt;\n/* &lt;![CDATA[ */!function(){try{var t=&quot;currentScript&quot;in document?document.currentScript:function(){for(var t=document.getElementsByTagName(&quot;script&quot;),e=t.length;e--;)if(t[e].getAttribute(&quot;cf-hash&quot;))return t[e]}();if(t&amp;&amp;t.previousSibling){var e,r,n,i,c=t.previousSibling,a=c.getAttribute(&quot;data-cfemail&quot;);if(a){for(e=&quot;&quot;,r=parseInt(a.substr(0,2),16),n=2;a.length-n;n+=2)i=parseInt(a.substr(n,2),16)^r,e+=String.fromCharCode(i);e=document.createTextNode(e),c.parentNode.replaceChild(e,c)}}}catch(u){}}();/* ]]&gt; */&lt;/script&gt;\nFormat settings, CABAC      : Yes\nFormat settings, ReFrames   : 3 frames\nCodec ID                    : avc1\nCodec ID/Info               : Advanced Video Coding\nDuration                    : 3mn 32s\nBit rate                    : 3 261 Kbps\nWidth                       : 1 920 pixels\nHeight                      : 1 080 pixels\nDisplay aspect ratio        : 16:9\nFrame rate mode             : Variable\nFrame rate                  : 23.976 fps\nMinimum frame rate          : 23.974 fps\nMaximum frame rate          : 23.981 fps\nColor space                 : YUV\nChroma subsampling          : 4:2:0\nBit depth                   : 8 bits\nScan type                   : Progressive\nBits/(Pixel*Frame)          : 0.066\nStream size                 : 82.7 MiB (93%)\n\nAudio\nID                          : 2\nFormat                      : AAC\nFormat/Info                 : Advanced Audio Codec\nFormat profile              : LC\nCodec ID                    : 40\nDuration                    : 3mn 32s\nBit rate mode               : Constant\nBit rate                    : 256 Kbps\nChannel(s)                  : 2 channels\nChannel positions           : Front: L R\nSampling rate               : 44.1 KHz\nCompression mode            : Lossy\nStream size                 : 6.49 MiB (7%)\n &lt;a href=&quot;\nhttps://thepiratebay.se/user/MeRaDil&quot; rel=&quot;nofollow&quot; target=&quot;_NEW&quot;&gt;\nhttps://thepiratebay.se/user/MeRaDil&lt;/a&gt;\n\nFast &amp; Furious 7 * Promo * Kid Ink * Tyga * Wale * YG * Rich Homie Quan\n\n:)",
  "parsed": {
    "xt": "urn:btih:557a170af7122ccf23b0e748cfcc6b7b591c949d",
    "dn": "Kid Ink ft. Tyga - Ride Out (from Furious 7) 2015",
    "tr": [
      "udp://exodus.desync.com:6969",
      "udp://open.demonii.com:1337",
      "udp://tracker.coppersurfer.tk:6969",
      "udp://tracker.openbittorrent.com:80"
    ],
    "infoHash": "557a170af7122ccf23b0e748cfcc6b7b591c949d",
    "infoHashBuffer": {
      "type": "Buffer",
      "data": [
        85,
        122,
        23,
        10,
        247,
        18,
        44,
        207,
        35,
        176,
        231,
        72,
        207,
        204,
        107,
        123,
        89,
        28,
        148,
        157
      ]
    },
    "name": "Kid Ink ft. Tyga - Ride Out (from Furious 7) 2015",
    "announce": [
      "udp://exodus.desync.com:6969",
      "udp://open.demonii.com:1337",
      "udp://tracker.coppersurfer.tk:6969",
      "udp://tracker.openbittorrent.com:80"
    ],
    "urlList": []
  },
  "previous": 5,
  "peers": 4,
  "last_updated": "2016-12-27T00:37:58.554Z"
}